# xmcd CD database file
# Copyright (C) 1996 Ti Kan
#
# Track frame offsets:
#  200
#  18802
#  34962
#  53162
#  68542
#  91787
#  107927
#  120962
#  136995
#  158650
#  173940
#  187620
#  201665
#  223532
#
# Disc length: 3192 seconds
#
# Revision: 1
# Processed by: cddbd v1.4b41PL1 Copyright (c) Steve Scherf et al.
# Submitted via: CDWizzard Release:4.12
#
DISCID=b40c760e
DTITLE=Dave Graney with the White Buffaloes - My Life on the Plains
DYEAR=1900
DGENRE=
TTITLE0=Nobody's Gonna Love You
TTITLE1=Robert Ford on the Stage
TTITLE2=Take Me for a Ride
TTITLE3=I'll Set the Scene
TTITLE4=In a Misty Morning
TTITLE5=Girl in the Moon
TTITLE6=Brass Buttons
TTITLE7=I Can't Want You
TTITLE8=Dolphins
TTITLE9=The Streets of Laredo
TTITLE10=Listen to Her Lovers Sing
TTITLE11=A Deal Made for Somebody Else
TTITLE12=World Full of Daughters
TTITLE13=The Greatest Show in Town
EXTD=
EXTT0=
EXTT1=
EXTT2=
EXTT3=
EXTT4=
EXTT5=
EXTT6=
EXTT7=
EXTT8=
EXTT9=
EXTT10=
EXTT11=
EXTT12=
EXTT13=
PLAYORDER=
